# xmcd
#
# Track frame offsets: 
#        150
#        17127
#        33522
#        53470
#        70607
#        90007
#        107017
#        124717
#        140782
#        159507
#        176447
#        194832
#
# Disc length: 2935 seconds
#
# Revision: 0
# Processed by: cddbd v1.4PL0 Copyright (c) Steve Scherf et al.
# Submitted via: ExactAudioCopy v0.90b4
#
DISCID=980b750c
DTITLE=Amy Sky - With This Kiss
DYEAR=2003
DGENRE=Blues
TTITLE0=Love Never Fails
TTITLE1=The Way You Look Tonight
TTITLE2=More Than Life Itself
TTITLE3=Tonight I Celebrate My Love
TTITLE4=What Are You Doing The Rest Of Your Life
TTITLE5=With This Kiss
TTITLE6=Everything Love Is
TTITLE7=We've Only Just Begun
TTITLE8=A Walk On The Moon
TTITLE9=The Twelfth Of Never
TTITLE10=Love Me Tender
TTITLE11=I Will Take Care Of You
EXTD=
EXTT0=
EXTT1=
EXTT2=
EXTT3=
EXTT4=
EXTT5=
EXTT6=
EXTT7=
EXTT8=
EXTT9=
EXTT10=
EXTT11=
PLAYORDER=
